# xmcd
#
# Track frame offsets:
#	150
#	16519
#	34027
#	56200
#	84706
#	105444
#	138104
#	158594
#	169651
#	184677
#	204875
#	222868
#	244752
#	262779
#	285018
#	305924
#	327591
#	341766
#
# Disc length: 4783 seconds
#
# Revision: 1
# Processed by: cddbd v1.5.2PL0 Copyright (c) Steve Scherf et al.
# Submitted via: EZCDAudioConverter 6.0.0.1
#
DISCID=ec12ad12
DTITLE=Various Artist - Akella Presents - vol.119 - Blues-Rock Instrumental  
DTITLE=CD2
DYEAR=2017
DGENRE=Blues
TTITLE0=Rocky Athas - Think About It
TTITLE1=Fast Eddie Clarke - One Way
TTITLE2=Bluesville Station - Brad's Boogie
TTITLE3=Dave Fields - Lydia
TTITLE4=Gary Cain - Twang Strut
TTITLE5=Enrico Crivellaro - Blues For Larry Johnson
TTITLE6=Satisfied Drive - 5th State of Matter
TTITLE7=Steve Hunter - Busted Trigger Finger
TTITLE8=Jon Bare and the Killer Whales - Orca
TTITLE9=Errorhead - Purple Lord
TTITLE10=Ronnie Baker Brooks - Train
TTITLE11=Magic Red - Desert Run
TTITLE12=Too Slim and The Taildraggers - Snakehead Soup
TTITLE13=Martin J. Andersen - Stranger
TTITLE14=Jimmy Thackery - Same Page On Demand
TTITLE15=Gregg Wright - Blues For The 21st Century
TTITLE16=Stone - Across The Mojave
TTITLE17=Mick Clarke - Cymbaline
EXTD=
EXTT0=
EXTT1=
EXTT2=
EXTT3=
EXTT4=
EXTT5=
EXTT6=
EXTT7=
EXTT8=
EXTT9=
EXTT10=
EXTT11=
EXTT12=
EXTT13=
EXTT14=
EXTT15=
EXTT16=
EXTT17=
PLAYORDER=
